<?xml version="1.0" encoding="UTF-8"?>
<svg width="1353px" height="1353px" viewBox="0 0 1353 1353" version="1.1" xmlns="http://www.w3.org/2000/svg" xmlns:xlink="http://www.w3.org/1999/xlink">
    <!-- Generator: Sketch 50.2 (55047) - http://www.bohemiancoding.com/sketch -->
    <title>crowd</title>
    <desc>Created with Sketch.</desc>
    <defs></defs>
    <g id="Page-1" stroke="none" stroke-width="1" fill="none" fill-rule="evenodd">
        <g id="crowd">
            <circle id="Oval" fill="#303644" cx="676.5" cy="676.5" r="676.5"></circle>
            <g transform="translate(191.000000, 304.000000)" fill="#FFFFFF" fill-rule="nonzero">
                <path d="M491.273953,270.078818 C507.339471,270.078818 522.649899,273.408867 536.569374,279.399015 C537.612589,256.876847 545.441673,236.049261 558,218.807882 C549.157507,216.975369 540.036823,216 530.697561,216 L442.21302,216 C432.893629,216 423.772945,216.965517 415,218.778325 C428.382964,237.192118 436.380949,259.665025 436.510109,284 C452.774335,275.133005 471.432988,270.078818 491.273953,270.078818 Z" id="Shape"></path>
                <circle id="Oval" cx="486" cy="104" r="104"></circle>
                <path d="M649.965241,385 C703.017742,385 746,342.013444 746,289 C746,235.966701 703.017742,193 649.965241,193 C597.4093,193 554.794496,235.202275 554,287.550569 C584.280246,306.532161 605.513164,338.638056 609.386334,375.906308 C621.720892,381.684178 635.435887,385 649.965241,385 Z" id="Shape"></path>
                <path d="M323.009928,193 C269.966701,193 227,235.978851 227,289.004964 C227,342.031077 269.966701,385 323.009928,385 C341.792968,385 359.255636,379.509747 374.067632,370.187238 C378.783247,339.499405 395.233299,312.663685 418.731954,294.395936 C418.831231,292.598945 419,290.821811 419,289.004964 C419,235.978851 376.013444,193 323.009928,193 Z" id="Shape"></path>
                <path d="M712,191.540642 C742.281813,210.522234 763.515829,242.628129 767.379268,279.906308 C779.704531,285.67425 793.430168,289 807.960273,289 C861.015518,289 904,246.023372 904,193.000001 C904,139.97663 861.015518,97.0000018 807.960273,97.0000018 C755.411546,96.9900741 712.794538,139.202276 712,191.540642 Z" id="Shape"></path>
                <circle id="Oval" cx="492" cy="388" r="96"></circle>
                <path d="M689.759511,393 L609.332423,393 C608.453493,425.228302 594.726374,454.25158 573,475.113916 C632.925291,492.97896 676.782941,548.651423 676.782941,614.413778 L676.782941,645 C756.182964,642.062061 801.946609,619.547753 804.958674,618.004593 L811.338328,614.76 L811.999995,614.76 L811.999995,515.483376 C812.019746,447.940451 757.170526,393 689.759511,393 Z" id="Shape"></path>
                <path d="M847.725064,295 L767.321048,295 C766.452029,327.229567 752.715602,356.253984 731,377.117139 C790.922816,394.982885 834.768779,450.647641 834.768779,516.412578 L834.768779,547 C914.155648,544.071838 959.927279,521.556646 962.93922,520.003533 L969.31861,516.768705 L970,516.768705 L970,417.488184 C970,349.952501 915.153045,295 847.725064,295 Z" id="Shape"></path>
                <path d="M409,475.31101 C387.25871,454.497757 373.492869,425.563469 372.479798,393.466042 C369.490247,393.247895 366.520559,393 363.461483,393 L281.988757,393 C214.172619,393 159,448.082238 159,515.787283 L159,615.312111 L159.248302,616.84906 L166.111358,619.010703 C218.02626,635.203195 264.369274,642.640041 304.604068,645 L304.604068,614.945227 C304.623932,549.034941 348.712367,493.22885 409,475.31101 Z" id="Shape"></path>
                <path d="M531.60413,492 L450.455192,492 C382.933263,492 328,546.901164 328,614.329713 L328,713.491669 L328.257113,715.042773 L335.080507,717.176775 C399.517076,737.281844 455.49857,744 501.561421,744 C591.560993,744 643.715453,718.362332 646.939259,716.732191 L653.327538,713.491669 L653.999988,713.491669 L653.999988,614.329713 C654.029655,546.881405 599.106281,492 531.60413,492 Z" id="Shape"></path>
                <path d="M164.04469,292 C178.574044,292 192.289039,288.674422 204.623597,282.906778 C208.496767,245.630526 229.719754,213.516364 260,194.535753 C259.205504,142.21002 216.5907,100 164.04469,100 C110.982258,100 68,142.974407 68,196.004964 C68,249.025593 110.982258,292 164.04469,292 Z" id="Shape"></path>
                <path d="M239,380.1337 C217.294273,359.271364 203.557846,330.238194 202.688827,298 L122.274936,298 C54.8469548,298.009892 0,352.960236 0,420.493268 L0,519.779784 L0.681389968,519.779784 L7.0607801,523.014485 C10.0825965,524.537861 55.8344765,547.081845 135.231221,550 L135.231221,519.413778 C135.231221,453.661315 179.067308,397.988852 239,380.1337 Z" id="Shape"></path>
                <path d="M275.425442,184.832988 C286.902473,180.192003 304.414841,174.494453 321.135689,174.494453 C340.597173,174.494453 359.633216,179.490918 376.611307,189 C380.390813,185.297086 383.85371,181.268316 387,176.953188 C370.872792,155.81202 362.067138,129.901499 362.067138,103.250396 C362.067138,85.2986712 366.084099,67.4851883 373.742049,51.3009874 C356.308834,35.580885 334.067138,27 310.430389,27 C267.411307,27 229.962544,56.0604657 219,96.9900037 C251.135689,115.652688 272.071378,148.277825 275.425442,184.832988 Z" id="Shape"></path>
                <path d="M586,171.181137 C589.33275,176.439126 593.230877,181.391875 597.654706,186 C613.405916,178.201635 630.724313,174.105524 648.161736,174.105524 C665.311512,174.105524 681.747126,178.457642 692.51905,182.100817 C695.891476,142.587132 719.964642,107.71111 756,90.0367847 C742.788027,52.5711543 707.02048,27 666.521617,27 C640.335726,27 615.538479,37.6735199 597.634868,56.4604905 C603.923449,71.3482784 607.107416,86.9942408 607.107416,103.03406 C607.097497,127.600879 599.817025,151.015668 586,171.181137 Z" id="Shape"></path>
            </g>
        </g>
    </g>
</svg>