<?xml version="1.0" encoding="UTF-8"?>
<svg width="1353px" height="1353px" viewBox="0 0 1353 1353" version="1.1" xmlns="http://www.w3.org/2000/svg" xmlns:xlink="http://www.w3.org/1999/xlink">
    <!-- Generator: Sketch 50.2 (55047) - http://www.bohemiancoding.com/sketch -->
    <title>document</title>
    <desc>Created with Sketch.</desc>
    <defs></defs>
    <g id="Page-1" stroke="none" stroke-width="1" fill="none" fill-rule="evenodd">
        <g id="document">
            <circle id="Oval" fill="#303644" cx="676.5" cy="676.5" r="676.5"></circle>
            <g id="001-document" transform="translate(284.000000, 198.000000)" fill="#FFFFFF" fill-rule="nonzero">
                <path d="M731.9,108.4 L703.9,108.4 L703.9,796.301 C703.9,842 666.7,879.199 621.001,879.199 L337.3,879.199 L111.7,879.199 L111.7,904.699 C111.7,933.9 135.4,957.599 164.6,957.599 L448.2,957.599 L731.8,957.599 C761,957.599 784.699,933.9 784.699,904.699 L784.699,161.3 C784.7,132.1 761.1,108.4 731.9,108.4 Z" id="Shape"></path>
                <path d="M337.3,849.199 L620.9,849.199 C650.1,849.199 673.8,825.5 673.8,796.301 L673.8,108.4 L673.8,52.9 C673.8,23.7 650.1,0 620.9,0 L337.3,0 L243,0 L243,17.5 C243.199,19.3 243.3,21.2 243.3,23.1 L243.3,138.4 L243.3,168 C243.3,209.1 209.9,242.5 168.8,242.5 L139.2,242.5 L23.9,242.5 C22.4,242.5 20.8,242.4 19.3,242.3 L0.9,242.3 L0.9,796.301 C0.9,825.5 24.6,849.199 53.8,849.199 L111.8,849.199 L337.3,849.199 Z M348,669.4 L163.1,669.4 C149.3,669.4 138.1,658.199 138.1,644.4 C138.1,630.599 149.3,619.4 163.1,619.4 L348.1,619.4 C361.9,619.4 373.1,630.599 373.1,644.4 C373.1,658.199 361.8,669.4 348,669.4 Z M533,541.801 L163.1,541.801 C149.3,541.801 138.1,530.6 138.1,516.801 C138.1,503 149.3,491.801 163.1,491.801 L533,491.801 C546.8,491.801 558,503 558,516.801 C558,530.6 546.8,541.801 533,541.801 Z M163.1,356.3 L533,356.3 C546.8,356.3 558,367.5 558,381.3 C558,395.1 546.8,406.3 533,406.3 L163.1,406.3 C149.3,406.3 138.1,395.1 138.1,381.3 C138.1,367.5 149.3,356.3 163.1,356.3 Z" id="Shape"></path>
                <path d="M23.9,212.5 L168.8,212.5 C168.9,212.5 169.1,212.5 169.2,212.5 C193.4,212.3 213,192.7 213.2,168.5 C213.2,168.4 213.2,168.2 213.2,168.1 L213.2,23.1 C213.2,9.7 202.2,0.8 190.801,0.8 C185.301,0.8 179.801,2.8 175.201,7.4 L8.1,174.5 C-5.9,188.5 4,212.5 23.9,212.5 Z" id="Shape"></path>
            </g>
        </g>
    </g>
</svg>