<?xml version="1.0" encoding="UTF-8"?>
<svg width="1353px" height="1353px" viewBox="0 0 1353 1353" version="1.1" xmlns="http://www.w3.org/2000/svg" xmlns:xlink="http://www.w3.org/1999/xlink">
    <!-- Generator: Sketch 50.2 (55047) - http://www.bohemiancoding.com/sketch -->
    <title>graphics-card</title>
    <desc>Created with Sketch.</desc>
    <defs></defs>
    <g id="Page-1" stroke="none" stroke-width="1" fill="none" fill-rule="evenodd">
        <g id="graphics-card">
            <circle id="Oval" fill="#303644" cx="676.5" cy="676.5" r="676.5"></circle>
            <g transform="translate(172.000000, 339.000000)" fill="#FFFFFF" fill-rule="nonzero" id="Shape">
                <path d="M0,0 L156.239805,0 L156.239805,625.308233 L88.3085149,625.308233 L88.3085149,569.083079 L60.5477366,569.083079 L60.5477366,408.535461 L88.3085149,408.535461 L88.3085149,291.811661 L60.5477366,291.811661 L60.5477366,131.268364 L88.3085149,131.268364 L88.3085149,67.8616696 L0,67.8616696 L0,0 Z M1008,212.914098 L1008,566.862073 C1008,596.841332 983.673634,621.160051 953.659293,621.160051 L953.603062,621.160051 L953.603062,675 L606.610636,675 L606.610636,621.160051 L573.685263,621.160051 L573.685263,675 L226.692837,675 L226.692837,621.160051 L196.267578,621.160051 L196.267578,158.633404 L953.659293,158.633404 C983.673634,158.633404 1008,182.934839 1008,212.914098 Z M270.427525,618.463732 L253.1257,618.463732 L253.1257,657.352941 L270.427525,657.352941 L270.427525,618.463732 Z M305.031175,618.463732 L287.72935,618.463732 L287.72935,657.352941 L305.031175,657.352941 L305.031175,618.463732 Z M339.634825,618.463732 L322.333,618.463732 L322.333,657.352941 L339.634825,657.352941 L339.634825,618.463732 Z M374.238475,618.463732 L356.93665,618.463732 L356.93665,657.352941 L374.238475,657.352941 L374.238475,618.463732 Z M384.90505,390.585931 L341.702393,390.585931 L341.702393,407.545947 L365.747604,407.545947 L365.747604,415.941695 C356.443548,426.804747 346.023524,432.231953 334.478881,432.231953 C329.435399,432.231953 324.755256,431.199228 320.442776,429.120816 C316.12597,427.051046 312.401752,424.225097 309.265797,420.642968 C306.125515,417.06084 303.65568,412.830558 301.864941,407.960765 C300.074202,403.090972 299.178833,397.858213 299.178833,392.258167 C299.178833,386.882814 299.992019,381.788327 301.614065,376.974708 C303.240436,372.165409 305.537253,367.90488 308.508842,364.210405 C311.48043,360.520251 315.066234,357.607882 319.270577,355.477617 C323.470595,353.351674 328.094508,352.288702 333.13799,352.288702 C339.522363,352.288702 345.435262,353.852912 350.876686,356.989975 C356.309459,360.127038 360.539755,364.659791 363.567575,370.592556 L380.886701,357.828254 C376.846725,349.877571 370.82569,343.551593 362.81062,338.85032 C354.795549,334.144725 345.184385,331.794089 333.981454,331.794089 C325.685229,331.794089 318.011869,333.388546 310.952725,336.577462 C303.889255,339.770698 297.751432,344.078758 292.543583,349.510284 C287.331408,354.94181 283.239526,361.267788 280.267938,368.488218 C277.29635,375.708648 275.817043,383.408711 275.817043,391.579766 C275.817043,400.204528 277.300675,408.23299 280.267938,415.678113 C283.239526,423.127557 287.270852,429.596128 292.37489,435.075186 C297.470278,440.562885 303.46536,444.875266 310.360137,448.008008 C317.254914,451.145071 324.621166,452.709282 332.467544,452.709282 C345.13248,452.709282 356.22295,447.951835 365.75193,438.432621 L365.75193,451.866682 L384.913701,451.866682 L384.913701,390.585931 L384.90505,390.585931 Z M408.842125,618.463732 L391.5403,618.463732 L391.5403,657.352941 L408.842125,657.352941 L408.842125,618.463732 Z M443.445775,618.463732 L426.14395,618.463732 L426.14395,657.352941 L443.445775,657.352941 L443.445775,618.463732 Z M478.049425,618.463732 L460.7476,618.463732 L460.7476,657.352941 L478.049425,657.352941 L478.049425,618.463732 Z M484.931226,332.64533 L404.741593,332.64533 L404.741593,451.883966 L427.939014,451.883966 L427.939014,402.507634 L475.350341,402.507634 L475.350341,383.69822 L427.94334,383.69822 L427.94334,352.967103 L484.935552,352.967103 L484.935552,332.64533 L484.931226,332.64533 Z M512.653075,618.463732 L495.35125,618.463732 L495.35125,657.352941 L512.653075,657.352941 L512.653075,618.463732 Z M547.256725,618.463732 L529.9549,618.463732 L529.9549,657.352941 L547.256725,657.352941 L547.256725,618.463732 Z M555.371281,393.105087 L597.903493,332.64533 L572.854775,332.64533 L543.268655,376.98335 L513.509516,332.64533 L488.296431,332.64533 L530.828642,393.105087 L489.641648,451.879645 L514.859058,451.879645 L543.268655,409.222504 L571.509558,451.879645 L596.558276,451.879645 L555.371281,393.105087 Z M650.34965,618.463732 L633.047825,618.463732 L633.047825,657.352941 L650.34965,657.352941 L650.34965,618.463732 Z M684.9533,618.463732 L667.651475,618.463732 L667.651475,657.352941 L684.9533,657.352941 L684.9533,618.463732 Z M719.55695,618.463732 L702.255125,618.463732 L702.255125,657.352941 L719.55695,657.352941 L719.55695,618.463732 Z M754.1606,618.463732 L736.858775,618.463732 L736.858775,657.352941 L754.1606,657.352941 L754.1606,618.463732 Z M788.76425,618.463732 L771.462425,618.463732 L771.462425,657.352941 L788.76425,657.352941 L788.76425,618.463732 Z M823.3679,618.463732 L806.066075,618.463732 L806.066075,657.352941 L823.3679,657.352941 L823.3679,618.463732 Z M857.97155,618.463732 L840.669725,618.463732 L840.669725,657.352941 L857.97155,657.352941 L857.97155,618.463732 Z M892.5752,618.463732 L875.273375,618.463732 L875.273375,657.352941 L892.5752,657.352941 L892.5752,618.463732 Z M927.17885,618.463732 L909.877025,618.463732 L909.877025,657.352941 L927.17885,657.352941 L927.17885,618.463732 Z M941.768614,398.752665 C941.768614,315.235928 873.988714,247.516852 790.377645,247.516852 C706.766576,247.516852 638.986676,315.235928 638.986676,398.752665 C638.986676,482.26508 706.766576,549.988477 790.377645,549.988477 C873.988714,549.988477 941.768614,482.26508 941.768614,398.752665 Z M871.903844,401.159475 C875.628062,399.15452 879.356606,397.166849 883.020267,395.192141 C886.657976,393.122371 890.243779,391.082848 893.708469,389.108141 C897.186136,387.12047 900.555667,385.210578 903.71325,383.231549 C903.959801,383.084634 904.193375,382.93772 904.435601,382.782163 C900.421578,353.900444 885.684748,328.432333 864.347272,310.564902 C864.053141,310.962436 863.741708,311.394538 863.430276,311.809356 C862.102361,313.64147 860.610078,315.680993 858.983707,317.914962 C857.244873,320.161894 855.371951,322.590309 853.377915,325.16996 C851.422809,327.762574 849.208175,330.441609 846.920009,333.224348 C844.627517,336.02005 842.257167,338.902172 839.852214,341.84911 C837.339123,344.718269 834.79143,347.647923 832.235085,350.59054 C832.226434,350.59054 832.217783,350.603503 832.204807,350.620787 C832.382151,347.777554 832.559494,344.89111 832.745489,341.965777 C832.99204,337.830558 833.056922,333.626203 833.216964,329.421847 C833.351053,325.200207 833.489467,320.982889 833.619231,316.830385 C833.640858,312.634672 833.653835,308.521058 833.671137,304.528432 C833.697089,300.522844 833.714391,296.646886 833.580302,292.930806 C833.580302,292.628334 833.567326,292.369073 833.558675,292.075243 C820.214642,286.669643 805.650831,283.688137 790.373319,283.688137 C776.497256,283.688137 763.205129,286.138158 750.881904,290.619059 C751.093851,291.09005 751.310124,291.586968 751.530722,292.075243 C752.443394,294.140693 753.477178,296.45244 754.601796,298.988881 C755.678835,301.607421 756.851034,304.446333 758.083789,307.458086 C759.355473,310.448234 760.575251,313.697644 761.838285,317.068042 C763.114294,320.464366 764.433558,323.94279 765.765799,327.486029 C767.01153,331.107046 768.274563,334.779916 769.541922,338.452786 C769.546248,338.47007 769.550573,338.474391 769.563549,338.504638 C767.180223,336.923143 764.775269,335.328686 762.31841,333.69966 C758.866696,331.426802 755.263591,329.261969 751.686439,327.015037 C748.09631,324.798352 744.501856,322.568704 740.967958,320.377945 C737.343226,318.273607 733.783375,316.190874 730.331661,314.181598 C726.875622,312.16368 723.527719,310.214899 720.240372,308.464884 C719.98517,308.326612 719.755921,308.205623 719.505044,308.058708 C697.501448,325.243418 681.92548,350.231895 676.929578,378.862995 C677.427006,378.914847 677.946061,378.97102 678.469441,379.014231 C680.705702,379.256208 683.236094,379.528432 685.991409,379.822262 C688.802956,380.19387 691.848077,380.608688 695.074867,381.049433 C698.297332,381.434004 701.727419,382.017342 705.28727,382.605001 C708.851445,383.196981 712.545385,383.793282 716.286905,384.41551 C720.041401,385.145763 723.856453,385.888979 727.671506,386.632195 C727.688807,386.632195 727.701784,386.632195 727.723411,386.632195 C725.171392,387.902575 722.584769,389.19024 719.941915,390.503831 C716.24365,392.353229 712.575663,394.388431 708.838469,396.354497 C705.114251,398.35513 701.385708,400.342801 697.722047,402.317509 C694.080012,404.387279 690.494209,406.426802 687.033844,408.414473 C683.556177,410.38918 680.186647,412.312035 677.033389,414.282422 C676.782513,414.429337 676.548938,414.56761 676.302387,414.723166 C680.320736,443.613528 695.057565,469.072996 716.395041,486.944749 C716.689172,486.547214 717.004931,486.119433 717.312038,485.695973 C718.639953,483.872501 720.132235,481.828657 721.758607,479.590367 C723.493115,477.343435 725.374688,474.919341 727.364398,472.344011 C729.319504,469.742755 731.534138,467.063721 733.822304,464.289624 C736.114796,461.489601 738.480821,458.607478 740.8901,455.673503 C743.40319,452.800023 745.950884,449.861727 748.507228,446.932074 C748.511554,446.923431 748.52453,446.901826 748.537507,446.893184 C748.360163,449.732097 748.182819,452.614219 748.00115,455.548194 C747.750274,459.683413 747.681066,463.879127 747.52535,468.092124 C747.386935,472.309443 747.252846,476.535404 747.118757,480.683586 C747.101455,484.870657 747.088479,488.997235 747.071177,492.981218 C747.045224,496.991127 747.027922,500.858443 747.157686,504.578844 C747.162012,504.876995 747.174988,505.144898 747.174988,505.430086 C760.51902,510.840007 775.087157,513.821513 790.364669,513.821513 C804.240732,513.821513 817.532859,511.375814 829.851759,506.886271 C829.639811,506.4196 829.432189,505.922682 829.207266,505.430086 C828.294594,503.373279 827.26081,501.05721 826.136192,498.525091 C825.059153,495.90223 823.886955,493.058996 822.658525,490.060206 C821.386841,487.065737 820.162737,483.807686 818.904029,480.44593 C817.628019,477.058247 816.30443,473.56254 814.976515,470.019301 C813.726458,466.402604 812.463425,462.725413 811.196066,459.061186 C811.19174,459.048223 811.187415,459.030939 811.178764,459.005012 C813.557765,460.595149 815.962719,462.180964 818.419578,463.814311 C821.866966,466.078527 825.474397,468.24336 829.051549,470.490292 C832.641678,472.711298 836.236132,474.940946 839.77003,477.136026 C843.394762,479.240364 846.954613,481.323097 850.402001,483.332373 C853.862366,485.341649 857.205944,487.299072 860.493291,489.040445 C860.752818,489.18736 860.982067,489.308348 861.228618,489.450942 C883.23654,472.261912 898.808182,447.286397 903.80841,418.650977 C903.310982,418.594803 902.791928,418.53863 902.268547,418.49542 C900.027961,418.253442 897.50622,417.98986 894.746579,417.69603 C891.935032,417.31578 888.885586,416.905283 885.663121,416.455897 C882.43633,416.079968 879.010569,415.500951 875.450719,414.913291 C871.886543,414.321311 868.192603,413.720689 864.451083,413.098462 C860.696587,412.368209 856.881535,411.620672 853.066482,410.881777 C853.049181,410.881777 853.036204,410.881777 853.014577,410.881777 C855.566596,409.602754 858.153219,408.31941 860.791747,407.001498 C864.494338,405.165063 868.16665,403.121219 871.903844,401.159475 Z"></path>
            </g>
        </g>
    </g>
</svg>