<?xml version="1.0" encoding="iso-8859-1"?>
<!-- Generator: Adobe Illustrator 19.0.0, SVG Export Plug-In . SVG Version: 6.00 Build 0)  -->
<svg xmlns="http://www.w3.org/2000/svg" xmlns:xlink="http://www.w3.org/1999/xlink" version="1.1" id="Capa_1" x="0px" y="0px" viewBox="0 0 512 512" style="enable-background:new 0 0 512 512;" xml:space="preserve" width="512px" height="512px">
<g>
	<g>
		<path d="M402.586,172.038h-58.099l-41.077,41.078v58.105l41.077,41.078h58.099l41.081-41.082V213.12L402.586,172.038z     M373.536,263.382l-21.213-21.213l21.213-21.213l21.213,21.213L373.536,263.382z" fill="#FFFFFF"/>
	</g>
</g>
<g>
	<g>
		<path d="M232.329,172.033H174.23v0.002l-41.081,41.081v58.097l41.081,41.081h58.099l41.077-41.078v-58.105L232.329,172.033z     M203.28,263.378l-21.214-21.213l21.213-21.214l21.214,21.213L203.28,263.378z" fill="#FFFFFF"/>
	</g>
</g>
<g>
	<g>
		<path d="M38.333,88.5v64H0v30h38.333v241h30v-59.667H106l11.428,32H512V88.5H38.333z M473.667,283.644L473.667,283.644    l-58.655,58.655h-82.95l-43.655-43.655l-43.651,43.651h-82.95l-58.655-58.655v-82.951l58.655-58.655h82.95l43.655,43.655    l43.651-43.651h82.95l58.655,58.655V283.644z" fill="#FFFFFF"/>
	</g>
</g>
<g>
</g>
<g>
</g>
<g>
</g>
<g>
</g>
<g>
</g>
<g>
</g>
<g>
</g>
<g>
</g>
<g>
</g>
<g>
</g>
<g>
</g>
<g>
</g>
<g>
</g>
<g>
</g>
<g>
</g>
</svg>
