<?xml version="1.0" encoding="UTF-8"?>
<svg width="1792px" height="1703px" viewBox="0 0 1792 1703" version="1.1" xmlns="http://www.w3.org/2000/svg" xmlns:xlink="http://www.w3.org/1999/xlink">
    <!-- Generator: Sketch 50.2 (55047) - http://www.bohemiancoding.com/sketch -->
    <title>Main Symbol</title>
    <desc>Created with Sketch.</desc>
    <defs>
        <linearGradient x1="50%" y1="0%" x2="50%" y2="100%" id="linearGradient-1">
            <stop stop-color="#BC0D41" offset="0%"></stop>
            <stop stop-color="#87051F" offset="100%"></stop>
        </linearGradient>
        <linearGradient x1="50%" y1="100%" x2="50%" y2="3.061617e-15%" id="linearGradient-2">
            <stop stop-color="#D62059" offset="0%"></stop>
            <stop stop-color="#0E54AD" offset="100%"></stop>
        </linearGradient>
    </defs>
    <g id="Page-1" stroke="none" stroke-width="1" fill="none" fill-rule="evenodd">
        <g id="Main-Symbol" stroke="#000000">
            <path d="M1308.38048,1643.74781 L1229.8138,1185.66891 L1562.6276,861.255636 L1102.69024,794.422826 L897,377.648879 L691.309761,794.422826 L231.372403,861.255636 L564.186201,1185.66891 L485.619521,1643.74781 L897,1427.47229 L1308.38048,1643.74781 Z" id="Star-2" stroke-width="5" fill="#AD0E2D" transform="translate(897.000000, 1010.158922) scale(1, -1) translate(-897.000000, -1010.158922) "></path>
            <path d="M1445.97891,1698.13195 L1340.95332,1085.78582 L1785.84883,652.119888 L1171.01836,562.779792 L896.057819,5.64887865 L621.097276,562.779792 L6.26680998,652.119888 L451.162315,1085.78582 L346.136733,1698.13195 L896.057819,1409.02133 L1445.97891,1698.13195 Z" id="Star-2" stroke-width="5" fill="url(#linearGradient-1)"></path>
            <polygon id="Polygon-2" stroke-width="5" fill="#AD0E2D" transform="translate(896.000000, 984.500000) scale(-1, -1) translate(-896.000000, -984.500000) " points="896 562 1341 884.76128 1171.02512 1407 620.974875 1407 451 884.76128"></polygon>
            <path d="M896,565.59017 L726.045085,905.5 L1065.95492,905.5 L896,565.59017 Z" id="Triangle-3" stroke-width="5" fill="#303644" transform="translate(896.000000, 734.000000) scale(1, -1) translate(-896.000000, -734.000000) "></path>
            <path d="M778.043591,940.633761 L608.088676,1280.54359 L947.998506,1280.54359 L778.043591,940.633761 Z" id="Triangle-3" stroke-width="5" fill="#303644" transform="translate(778.043591, 1109.043591) rotate(36.000000) translate(-778.043591, -1109.043591) "></path>
            <path d="M698.592402,708.841479 L528.637487,1048.75131 L868.547318,1048.75131 L698.592402,708.841479 Z" id="Triangle-3" stroke-width="5" fill="#303644" transform="translate(698.592402, 877.251309) rotate(108.000000) translate(-698.592402, -877.251309) "></path>
            <path d="M1213.12249,1001.52679 L875.832094,1176.62263 L1150.82492,1376.41662 L1213.12249,1001.52679 Z" id="Triangle-3" stroke-width="5" fill="#303644" transform="translate(1043.749201, 1188.910526) rotate(-72.000000) translate(-1043.749201, -1188.910526) "></path>
            <path d="M1349.70211,688.671286 L1012.41171,863.767122 L1287.40453,1063.56111 L1349.70211,688.671286 Z" id="Triangle-3" stroke-width="5" fill="#303644" transform="translate(1180.328813, 876.055017) rotate(216.000000) translate(-1180.328813, -876.055017) "></path>
            <path d="M1106.43816,1232.46553 L1066.23846,998.083263 L1236.52714,832.092821 L1001.19397,797.896909 L895.949771,584.648879 L790.705576,797.896909 L555.372403,832.092821 L725.661087,998.083263 L685.461382,1232.46553 L895.949771,1121.80523 L1106.43816,1232.46553 Z" id="Star-2" stroke-width="5" fill="#FFFFFF"></path>
            <g transform="translate(550.000000, 579.000000)">
                <path d="M503.660652,632.808336 L473.530778,457.190759 L601.162388,332.818268 L424.779783,307.196117 L345.898501,147.413462 L267.017219,307.196117 L90.634613,332.818268 L218.266223,457.190759 L188.136349,632.808336 L345.898501,549.892919 L503.660652,632.808336 Z" id="Star-2" stroke-width="3.5" fill="#303644" transform="translate(345.898501, 389.733564) scale(1, -1) translate(-345.898501, -389.733564) "></path>
                <path d="M556.706697,654.326152 L516.369779,419.020089 L687.24072,252.37442 L451.102989,218.043539 L345.5,3.95588875 L239.897011,218.043539 L3.75928013,252.37442 L174.630221,419.020089 L134.293303,654.326152 L345.5,543.229777 L556.706697,654.326152 Z" id="Star-2" stroke-width="3.5" fill="url(#linearGradient-2)"></path>
                <polygon id="Polygon-2" stroke-width="2.5" fill="#AD0E2D" transform="translate(345.500000, 379.771050) scale(-1, -1) translate(-345.500000, -379.771050) " points="345.5 216.784314 517.253749 341.2951 451.649654 542.757785 239.350346 542.757785 173.746251 341.2951"></polygon>
                <path d="M346.297001,218.782398 L280.972946,349.430507 L411.621056,349.430507 L346.297001,218.782398 Z" id="Triangle-3" stroke-width="2.5" fill="#303644" transform="translate(346.297001, 283.333910) scale(1, -1) translate(-346.297001, -283.333910) "></path>
                <path d="M300.867935,363.836607 L235.54388,494.484717 L366.19199,494.484717 L300.867935,363.836607 Z" id="Triangle-3" stroke-width="2.5" fill="#303644" transform="translate(300.867935, 428.388120) rotate(36.000000) translate(-300.867935, -428.388120) "></path>
                <path d="M269.78489,274.572478 L204.460835,405.220588 L335.108945,405.220588 L269.78489,274.572478 Z" id="Triangle-3" stroke-width="2.5" fill="#303644" transform="translate(269.784890, 339.123991) rotate(108.000000) translate(-269.784890, -339.123991) "></path>
                <path d="M467.791263,387.214953 L338.701979,454.366935 L443.948459,530.991042 L467.791263,387.214953 Z" id="Triangle-3" stroke-width="2.5" fill="#303644" transform="translate(402.884083, 459.072664) rotate(-72.000000) translate(-402.884083, -459.072664) "></path>
                <path d="M520.393339,266.070778 L391.304055,333.22276 L496.550535,409.846867 L520.393339,266.070778 Z" id="Triangle-3" stroke-width="2.5" fill="#303644" transform="translate(455.486159, 337.928489) rotate(216.000000) translate(-455.486159, -337.928489) "></path>
                <path d="M426.346256,475.117368 L410.905948,384.981549 L476.313855,321.145339 L385.922522,307.994381 L345.5,225.987586 L305.077478,307.994381 L214.686145,321.145339 L280.094052,384.981549 L264.653744,475.117368 L345.5,432.561139 L426.346256,475.117368 Z" id="Star-2" stroke-width="2.5" fill="#AD0E2D"></path>
            </g>
        </g>
    </g>
</svg>