<?xml version="1.0" encoding="UTF-8"?>
<svg width="635px" height="635px" viewBox="0 0 635 635" version="1.1" xmlns="http://www.w3.org/2000/svg" xmlns:xlink="http://www.w3.org/1999/xlink">
    <!-- Generator: Sketch 50.2 (55047) - http://www.bohemiancoding.com/sketch -->
    <title>Oval</title>
    <desc>Created with Sketch.</desc>
    <defs></defs>
    <g id="Page-1" stroke="none" stroke-width="1" fill="none" fill-rule="evenodd">
        <circle id="Oval" fill="#AD0E2D" cx="317.5" cy="317.5" r="317.5"></circle>
        <g id="002-apple-big-logo" transform="translate(123.000000, 78.000000)" fill="#FFFFFF" fill-rule="nonzero">
            <path d="M218.728,36.181 C235.942,15.939 264.971,0.956 288.819,0 C291.967,28.032 280.81,56.045 264.074,76.367 C247.358,96.53 220.182,112.349 193.365,110.237 C189.799,82.703 203.288,54.132 218.728,36.181 Z M355.045,418.793 C335.082,447.941 314.54,477.049 281.966,477.547 C250.128,478.125 239.868,458.56 203.427,458.56 C166.967,458.56 155.531,477.049 125.387,478.125 C94.067,479.261 70.279,446.725 50.216,417.577 C9.313,358.265 -21.927,249.841 20.092,176.721 C40.912,140.321 78.169,117.309 118.614,116.751 C149.316,116.113 178.405,137.531 197.272,137.531 C216.02,137.531 251.404,111.83 288.402,115.675 C303.922,116.273 347.575,121.911 375.607,162.973 C373.356,164.407 323.507,193.496 324.045,254.083 C324.782,326.445 387.382,350.533 388.019,350.752 C387.381,352.427 377.937,385.122 355.045,418.793 Z" id="Apple_3_"></path>
        </g>
    </g>
</svg>