<?xml version="1.0" encoding="UTF-8"?>
<svg width="1353px" height="1353px" viewBox="0 0 1353 1353" version="1.1" xmlns="http://www.w3.org/2000/svg" xmlns:xlink="http://www.w3.org/1999/xlink">
    <!-- Generator: Sketch 50.2 (55047) - http://www.bohemiancoding.com/sketch -->
    <title>payment</title>
    <desc>Created with Sketch.</desc>
    <defs></defs>
    <g id="Page-1" stroke="none" stroke-width="1" fill="none" fill-rule="evenodd">
        <g id="payment">
            <circle id="Oval" fill="#303644" cx="676.5" cy="676.5" r="676.5"></circle>
            <g transform="translate(230.000000, 286.000000)" fill="#FFFFFF" fill-rule="nonzero" id="Group">
                <g transform="translate(420.000000, 0.000000)">
                    <path d="M248.199511,217.860727 C221.468936,207.167299 213.746266,200.700921 213.746266,189.023698 C213.746266,179.6789 220.838617,168.76154 240.834862,168.76154 C258.521617,168.76154 272.086085,175.721074 272.207106,175.781461 C273.634149,176.541323 275.23516,176.946415 276.821043,176.946415 C280.691202,176.946415 284.115096,174.608958 285.534574,170.990805 L290.393074,158.596494 C292.084851,154.080093 289.518191,150.144912 286.245574,148.733379 C275.356181,144.00311 254.074085,140.342184 253.857255,140.304442 C253.514362,140.244056 252.321798,139.98993 252.321798,138.598526 L252.253723,120.618471 C252.253723,115.203823 247.722989,110.795615 242.161053,110.795615 L233.445,110.795615 C227.888106,110.795615 223.359894,115.201307 223.359894,120.620988 L223.382585,139.524451 C223.382585,140.973725 221.809309,141.60275 221.234457,141.736104 C194.370255,148.121967 177.581074,167.760132 177.581074,192.531142 C177.581074,223.411245 203.159426,237.365539 230.777489,247.840065 C252.856309,256.490419 261.862309,265.261546 261.862309,278.126368 C261.862309,292.125952 249.10717,301.903519 230.832957,301.903519 C215.228777,301.903519 194.110564,292.032856 193.901298,291.932212 C192.549894,291.293122 191.117809,290.971062 189.645383,290.971062 C185.626468,290.971062 182.126936,293.396583 180.727628,297.153121 L176.088479,309.688334 C174.439564,314.368281 176.978489,318.167593 180.228415,319.858412 C193.197862,326.599046 218.294649,330.549324 219.411574,330.722935 C219.711606,330.765708 221.2395,331.301638 221.2395,332.695558 L221.2395,351.51599 C221.2395,356.930638 225.770234,361.338847 231.334691,361.338847 L240.340691,361.338847 C245.90767,361.338847 250.438404,356.933155 250.438404,351.51599 L250.438404,331.709246 C250.438404,329.857396 251.807457,329.69385 252.08984,329.625915 C280.708851,323.209858 298.337617,302.313643 298.337617,276.075746 C298.330053,249.125793 283.3335,231.711861 248.199511,217.860727 Z" id="Shape"></path>
                    <path d="M236.947053,0.00918982193 C106.304585,0.00918982193 0.405925532,105.697995 0.405925532,236.064715 C0.405925532,366.43395 106.304585,472.125272 236.947053,472.125272 C367.584479,472.125272 473.48566,366.43395 473.48566,236.064715 C473.48566,105.697995 367.584479,0.00918982193 236.947053,0.00918982193 Z M236.947053,417.417697 C136.580074,417.417697 55.2235213,336.220615 55.2235213,236.067231 C55.2235213,135.913847 136.580074,54.719281 236.947053,54.719281 C337.308989,54.719281 418.663021,135.913847 418.663021,236.067231 C418.663021,336.220615 337.308989,417.417697 236.947053,417.417697 Z" id="Shape"></path>
                </g>
                <g transform="translate(0.000000, 495.000000)">
                    <path d="M845.494547,91.9335937 C795.269613,119.583984 726.190819,145.150112 657.30084,155.928013 C596.008799,165.515625 480.700408,142.392857 480.700408,115.083984 C480.700408,104.735491 581.830011,140.58231 643.003728,124.302455 C689.91306,111.819475 683.254165,68.0499442 657.738892,62.2767857 C632.372154,56.5337612 483.756702,2.22739955 420.276918,0.354073661 C390.373571,-0.52734375 316.546696,10.7276786 280.822796,16.530971 C268.585031,18.5172991 260.911568,18.2988281 260.146235,29.9807478 C256.591468,84.2720424 249.585153,195.29548 245.766044,253.288225 C245.685483,254.513672 247.392375,270.991908 261.024857,259.395368 C275.94632,246.703962 296.874634,232.63644 316.232003,237.015904 C346.601094,243.888951 609.334141,291.899833 645.574137,283.497489 C697.417848,271.476562 844.177873,184.723493 872.316423,157.75865 C915.930295,115.955357 882.026577,71.8217076 845.494547,91.9335937 Z" id="Shape"></path>
                    <path d="M187.643586,14.4140625 L50.0046107,7.64899554 C39.3780721,7.12667411 28.5249549,15.1146763 25.8840549,25.3928571 L0.857184621,252.037667 C-1.78119784,262.318359 4.75937243,271.067243 15.390946,271.476562 L167.928726,271.461496 C178.562817,271.870815 187.923033,263.548828 188.738716,252.966797 L205.490431,34.6012835 C206.301079,24.0217634 198.270125,14.9363839 187.643586,14.4140625 Z M106.614027,241.435547 C85.595081,241.435547 68.5588843,224.440011 68.5588843,203.476842 C68.5588843,182.511161 85.5975985,165.518136 106.614027,165.518136 C127.630455,165.518136 144.669169,182.513672 144.669169,203.476842 C144.669169,224.442522 127.632973,241.435547 106.614027,241.435547 Z" id="Shape"></path>
                </g>
            </g>
        </g>
    </g>
</svg>