<?xml version="1.0" encoding="UTF-8"?>
<svg width="1353px" height="1353px" viewBox="0 0 1353 1353" version="1.1" xmlns="http://www.w3.org/2000/svg" xmlns:xlink="http://www.w3.org/1999/xlink">
    <!-- Generator: Sketch 50.2 (55047) - http://www.bohemiancoding.com/sketch -->
    <title>roadmap</title>
    <desc>Created with Sketch.</desc>
    <defs></defs>
    <g id="Page-1" stroke="none" stroke-width="1" fill="none" fill-rule="evenodd">
        <g id="roadmap">
            <circle id="Oval" fill="#303644" cx="676.5" cy="676.5" r="676.5"></circle>
            <g id="002-way" transform="translate(188.000000, 333.000000)" fill="#FFFFFF" fill-rule="nonzero">
                <path d="M962.044397,584.70826 L738.422301,25.1877793 C735.561684,18.3980791 730.914825,12.5037858 724.485481,7.50677667 C718.044867,2.49850456 711.245502,0 704.098656,0 L522.30768,0 C526.950782,0 531.062331,1.69320144 534.636694,5.08523581 C538.209178,8.48665599 540.175734,12.4981543 540.538242,17.1422567 L548.584783,120.050235 C548.943534,125.052875 547.517922,129.161986 544.311702,132.371936 C541.084821,135.587517 537.155464,137.192491 532.50297,137.192491 L443.483882,137.192491 C438.837023,137.192491 434.909544,135.587517 431.690177,132.371936 C428.472687,129.163863 427.043318,125.052875 427.405825,120.050235 L435.450488,17.1422567 C435.803605,12.4981543 437.766405,8.48665599 441.34828,5.08523581 C444.922642,1.69883293 449.030435,0 453.682929,0 L271.886318,0 C264.737593,0 257.943863,2.49850456 251.507006,7.50677667 C245.075783,12.4981543 240.432681,18.3980791 237.568308,25.1877793 L13.9424547,584.70826 C4.64685879,606.858789 0,627.580796 0,646.878036 C0,672.961223 8.22122107,686 24.6692981,686 L402.195583,686 C397.548725,686 393.621246,684.304921 390.4,680.912887 C387.18251,677.50959 385.753141,673.499969 386.115649,668.848357 L396.836857,531.665252 C397.19373,527.013641 399.160287,522.998388 402.734649,519.600722 C406.307133,516.201179 410.422439,514.519241 415.069298,514.519241 L560.925067,514.519241 C565.579439,514.519241 569.679719,516.201179 573.265351,519.600722 C576.839713,522.998388 578.80627,527.013641 579.161264,531.665252 L589.895621,668.848357 C590.261885,673.499969 588.815611,677.507713 585.609391,680.912887 C582.395658,684.304921 578.460667,686 573.808173,686 L951.328824,686 C967.771266,686 976,672.961223 976,646.878036 C976,627.588305 971.345628,606.86442 962.044397,584.70826 Z M568.979121,396.588324 C569.326603,400.879519 567.899112,404.449884 564.685379,407.303173 C561.477281,410.167724 557.711334,411.594369 553.425105,411.594369 L422.574895,411.594369 C418.283031,411.594369 414.522719,410.167724 411.312743,407.303173 C408.091497,404.438621 406.664006,400.866379 407.019,396.588324 L407.019,394.442726 L419.892715,222.952581 C420.249588,218.306602 422.216144,214.289472 425.790507,210.893683 C429.364869,207.497894 433.478297,205.802816 438.125156,205.802816 L537.861696,205.802816 C542.516068,205.802816 546.629496,207.492263 550.20198,210.893683 C553.774464,214.289472 555.742899,218.306602 556.103529,222.952581 L568.973487,394.442726 L568.973487,396.588324 L568.979121,396.588324 Z" id="Shape"></path>
            </g>
        </g>
    </g>
</svg>