<?xml version="1.0" encoding="UTF-8"?>
<svg width="635px" height="635px" viewBox="0 0 635 635" version="1.1" xmlns="http://www.w3.org/2000/svg" xmlns:xlink="http://www.w3.org/1999/xlink">
    <!-- Generator: Sketch 50.2 (55047) - http://www.bohemiancoding.com/sketch -->
    <title>Oval</title>
    <desc>Created with Sketch.</desc>
    <defs></defs>
    <g id="Page-1" stroke="none" stroke-width="1" fill="none" fill-rule="evenodd">
        <circle id="Oval" fill="#AD0E2D" cx="317.5" cy="317.5" r="317.5"></circle>
        <g id="003-ubuntu-logo" transform="translate(46.000000, 70.000000)" fill="#FFFFFF" fill-rule="nonzero">
            <path d="M162.839,241.198 C162.839,203.081 180.733,169.148 208.524,147.302 L165.988,79.22 C130.34,104.823 103.516,141.88 90.861,185.016 C110.672,197.767 123.81,220.047 123.81,245.369 C123.81,269.793 111.667,291.326 93.027,304.287 C106.633,345.147 133.147,380.125 167.733,404.4 L207.292,334.042 C180.187,312.204 162.839,278.724 162.839,241.198 Z" id="Shape"></path>
            <path d="M103.704,245.368 C103.704,273.852 80.572,296.96 52.095,296.96 C23.604,296.96 0.489,273.853 0.489,245.368 C0.489,216.898 23.604,193.791 52.095,193.791 C80.572,193.791 103.704,216.898 103.704,245.368 Z" id="Shape"></path>
            <path d="M393.494,370.126 C405.496,370.126 416.795,373.062 426.724,378.275 C457.648,345.684 477.63,302.68 480.935,255.047 L400.787,253.496 C394.616,313.607 343.833,360.437 282.11,360.437 C265.026,360.437 248.722,356.843 234.009,350.344 L194.168,420.048 C220.728,433.117 250.544,440.459 282.109,440.459 C295.731,440.459 309.09,439.08 321.963,436.453 C324.709,399.381 355.68,370.126 393.494,370.126 Z" id="Shape"></path>
            <path d="M445.071,441.847 C445.071,470.325 421.987,493.423 393.494,493.423 C365.001,493.423 341.9,470.325 341.9,441.847 C341.9,413.347 365.001,390.255 393.494,390.255 C421.987,390.255 445.071,413.347 445.071,441.847 Z" id="Shape"></path>
            <path d="M432.211,110.152 C420.534,118.421 406.243,123.315 390.812,123.315 C351.175,123.315 319.082,91.213 319.082,51.6 C319.082,49.496 319.176,47.461 319.332,45.419 C307.282,43.112 294.829,41.928 282.11,41.928 C250.251,41.928 220.122,49.426 193.421,62.705 L233.028,132.455 C248.007,125.707 264.621,121.911 282.11,121.911 C343.287,121.911 393.711,167.985 400.601,227.325 L480.748,224.878 C477.209,181.12 459.487,141.372 432.211,110.152 Z" id="Shape"></path>
            <path d="M442.374,51.601 C442.374,80.093 419.336,103.193 390.813,103.193 C362.322,103.193 339.221,80.093 339.221,51.601 C339.22,23.107 362.321,0 390.812,0 C419.335,0 442.374,23.107 442.374,51.601 Z" id="Shape"></path>
        </g>
    </g>
</svg>